<svg width="64" height="64" viewBox="0 0 64 64" fill="none" xmlns="http://www.w3.org/2000/svg">
<g id="cancel 1" clip-path="url(#clip0_18_7)">
<g id="Group">
<g id="Group_2">
<g id="group-28svg">
<path id="path-1_21_" d="M22.26 56.156C21.043 56.156 19.9 55.683 19.04 54.826C19.012 54.796 18.984 54.766 18.957 54.735L0.356001 32.824C-0.0219991 32.378 -0.106999 31.753 0.138001 31.223C0.383001 30.693 0.914001 30.353 1.499 30.353H14.162C14.928 16.859 25.432 6.86401 39.159 6.86401C49.891 6.86401 59.38 13.64 62.846 23.752C62.956 23.961 63.019 24.4 63.019 24.653C63.019 25.481 62.348 26.353 61.519 26.353C61.514 26.353 61.507 26.353 61.499 26.353C61.201 26.353 60.903 26.064 60.645 25.886C57.045 23.392 52.711 21.974 48.112 21.974C41.232 21.974 34.953 24.998 30.843 30.353H43.076C43.66 30.353 44.192 30.693 44.437 31.223C44.682 31.754 44.597 32.379 44.218 32.825L25.617 54.707C25.592 54.738 25.564 54.768 25.536 54.796C24.66 55.673 23.496 56.156 22.26 56.156ZM21.198 52.739C21.787 53.291 22.782 53.274 23.377 52.71L39.831 33.353H28.024C27.486 33.353 26.988 33.064 26.721 32.597C26.454 32.129 26.458 31.554 26.732 31.09C31.248 23.441 39.241 18.873 48.112 18.873C51.707 18.873 55.165 19.588 58.313 20.965C54.453 14.188 47.203 9.86401 39.159 9.86401C26.429 9.86401 17.159 19.114 17.118 31.858C17.115 32.684 16.444 33.353 15.618 33.353H4.741L21.198 52.739Z" fill="white"/>
</g>
</g>
</g>
</g>
<defs>
<clipPath id="clip0_18_7">
<rect width="63.019" height="63.019" fill="white"/>
</clipPath>
</defs>
</svg>
