<svg width="62" height="53" viewBox="0 0 62 53" fill="none" xmlns="http://www.w3.org/2000/svg">
<path id="Vector" d="M6.22031 32.1452C5.0342 31.2133 4.00103 29.982 3.18074 28.5227C2.18313 27.1288 1.4603 25.4366 1.07505 23.5931C0.6898 21.7497 0.653771 19.8108 0.970149 17.945C1.85438 14.25 4.78344 11.2796 9.64672 9.17851C12.2773 8.12637 14.9531 7.27965 17.6601 6.64276C21.4607 5.83486 25.1723 4.42378 28.713 2.44064C33.5707 -0.175037 38.9354 -0.707597 44.0382 0.919254C49.141 2.54611 53.72 6.24886 57.1189 11.4969C59.9402 15.7295 61.5494 21.1177 61.6704 26.7363C61.7914 32.355 60.4167 37.8536 57.7821 42.2882C56.2959 46.1432 53.8114 49.1789 50.7736 50.8515C47.7358 52.5242 44.343 52.7246 41.2028 51.4169C37.4283 49.6301 33.9961 46.7869 31.1446 43.0851C28.954 40.1225 26.3934 37.6722 23.5734 35.8401C21.0743 34.7993 18.4566 34.3335 15.8363 34.4636C12.5354 34.7158 9.23679 33.9205 6.22031 32.1452ZM49.824 6.78764C46.8029 4.34506 43.3776 2.89212 39.8377 2.55164C36.2978 2.21115 32.7474 2.99315 29.4867 4.83151C25.8048 6.9064 21.9451 8.39031 17.9916 9.25097C15.3781 9.87286 12.7946 10.6954 10.2546 11.7142C6.10975 13.5255 3.5676 15.9164 2.84917 18.9593C2.65008 20.4272 2.72177 21.9363 3.05825 23.3605C3.39474 24.7847 3.98626 26.0827 4.78342 27.1461C6.2564 29.1273 8.06482 30.6255 10.062 31.5192C12.0592 32.4129 14.1889 32.677 16.2784 32.2901C19.1279 32.1762 21.9707 32.7155 24.6786 33.884C27.6764 35.6869 30.4224 38.1358 32.8025 41.129C35.4307 44.5844 38.598 47.2536 42.087 48.9536C44.7887 49.9981 47.6851 49.7566 50.264 48.2716C52.843 46.7867 54.9383 44.154 56.1795 40.8392C58.5411 36.8667 59.7772 31.9423 59.6764 26.9076C59.5756 21.8728 58.1442 17.0403 55.6268 13.2357C53.9828 10.674 52.021 8.49408 49.824 6.78764Z" fill="#2C3334"/>
</svg>
