<svg width="64" height="64" viewBox="0 0 64 64" fill="none" xmlns="http://www.w3.org/2000/svg">
<g id="whatsapp 1">
<g id="SVGRepo_iconCarrier">
<path id="Vector" d="M53.152 10.7261C47.772 5.34607 40.34 2.01807 32.13 2.01807C15.712 2.01807 2.39999 15.3281 2.39999 31.7481C2.39999 37.2121 3.87399 42.3301 6.44399 46.7301L6.36799 46.5901L2.14999 61.9941L17.908 57.8601C22.01 60.1381 26.904 61.4781 32.112 61.4781H32.124C48.542 61.4721 61.848 48.1601 61.848 31.7421C61.848 23.5361 58.524 16.1081 53.15 10.7281L53.152 10.7261ZM32.124 56.4561H32.114C27.476 56.4561 23.134 55.1761 19.428 52.9501L19.54 53.0121L18.638 52.4781L9.28799 54.9321L11.782 45.8141L11.194 44.8801C8.82399 41.1561 7.41599 36.6181 7.41599 31.7501C7.41599 18.1061 18.478 7.04407 32.122 7.04407C45.766 7.04407 56.828 18.1061 56.828 31.7501C56.828 45.3941 45.77 56.4561 32.124 56.4561ZM45.676 37.9541C44.934 37.5821 41.282 35.7881 40.602 35.5381C39.92 35.2901 39.424 35.1681 38.928 35.9121C38.436 36.6541 37.012 38.3261 36.578 38.8221C36.146 39.3201 35.71 39.3801 34.968 39.0101C32.668 38.0781 30.692 36.8361 28.974 35.3061L28.994 35.3241C27.396 33.8441 26.026 32.1501 24.92 30.2821L24.864 30.1781C24.432 29.4361 24.818 29.0341 25.188 28.6641C25.522 28.3321 25.932 27.7961 26.302 27.3641C26.594 27.0061 26.844 26.5961 27.034 26.1561L27.046 26.1221C27.132 25.9481 27.182 25.7461 27.182 25.5301C27.182 25.2681 27.108 25.0241 26.98 24.8161L26.984 24.8221C26.796 24.4501 25.312 20.7941 24.694 19.3061C24.09 17.8581 23.476 18.0561 23.022 18.0321C22.59 18.0121 22.094 18.0081 21.598 18.0081C20.808 18.0281 20.106 18.3841 19.622 18.9341L19.62 18.9381C18.016 20.4601 17.02 22.6061 17.02 24.9841C17.02 25.0361 17.02 25.0901 17.022 25.1421V25.1341C17.284 28.0681 18.384 30.7021 20.076 32.8481L20.052 32.8181C23.26 37.5761 27.536 41.3821 32.554 43.9461L32.742 44.0321C33.838 44.5281 35.242 45.0581 36.678 45.5121L36.976 45.5941C37.86 45.8741 38.878 46.0361 39.934 46.0361C40.54 46.0361 41.136 45.9821 41.712 45.8801L41.65 45.8881C43.788 45.4421 45.562 44.1521 46.644 42.3901L46.662 42.3561C46.992 41.6241 47.184 40.7701 47.184 39.8721C47.184 39.5021 47.152 39.1401 47.09 38.7881L47.096 38.8261C46.912 38.5161 46.416 38.3321 45.672 37.9581L45.676 37.9541Z" fill="white" stroke="white" stroke-width="0.00064"/>
</g>
</g>
</svg>
