<svg width="64" height="64" viewBox="0 0 64 64" fill="none" xmlns="http://www.w3.org/2000/svg">
<g id="telephone 1">
<g id="SVGRepo_iconCarrier">
<path id="Vector" d="M38.2155 42.5073L41.7621 38.9603C42.308 38.4081 42.9579 37.9691 43.6741 37.6699C44.3907 37.3707 45.1592 37.2169 45.9355 37.2169C46.712 37.2169 47.4805 37.3707 48.1971 37.6699C48.9133 37.9691 49.5632 38.4081 50.1088 38.9603L54.2688 43.1206C54.8211 43.6662 55.2597 44.3155 55.5589 45.0321C55.8581 45.7483 56.0123 46.5174 56.0123 47.2937C56.0123 48.0702 55.8581 48.839 55.5589 49.5555C55.2597 50.2718 54.8211 50.9211 54.2688 51.4667L52.3755 53.3867C51.0709 54.7041 49.3837 55.5761 47.5544 55.8777C45.7251 56.1793 43.8472 55.8958 42.1888 55.067C27.9176 47.7206 16.2936 36.1057 8.93556 21.8406C8.10604 20.1804 7.82439 18.2999 8.13105 16.4695C8.43772 14.6391 9.31692 12.9529 10.6423 11.6537L12.5355 9.73381C13.6447 8.63136 15.145 8.01245 16.7088 8.01245C18.2727 8.01245 19.773 8.63136 20.8822 9.73381L25.0689 13.9206C26.1713 15.0298 26.7901 16.53 26.7901 18.0938C26.7901 19.6577 26.1713 21.1578 25.0689 22.267L21.5221 25.8139C23.8672 28.9859 26.4431 31.9803 29.2288 34.7734C31.9984 37.5478 34.976 40.1067 38.1355 42.4273L38.2155 42.5073Z" stroke="white" stroke-width="4" stroke-linecap="round" stroke-linejoin="round"/>
</g>
</g>
</svg>
